<mxfile host="app.diagrams.net" modified="2023-12-13T23:36:09.829Z" agent="Mozilla/5.0 (Macintosh; Intel Mac OS X 10_15_7) AppleWebKit/537.36 (KHTML, like Gecko) Chrome/120.0.0.0 Safari/537.36" etag="xU3JiuAzBQlwzDt7rNyS" version="22.1.8" type="device">
  <diagram name="Page-1" id="oRpufJo8DiirS1y-N44j">
    <mxGraphModel dx="1733" dy="889" grid="0" gridSize="4" guides="1" tooltips="1" connect="1" arrows="1" fold="1" page="0" pageScale="1" pageWidth="1600" pageHeight="1200" background="none" math="0" shadow="0">
      <root>
        <mxCell id="0" />
        <mxCell id="1" parent="0" />
        <mxCell id="JdswID3IMP4crT_ataHJ-2" value="&lt;p style=&quot;margin:0px;margin-top:4px;text-align:center;&quot;&gt;&lt;i&gt;&amp;lt;&amp;lt;Interface&amp;gt;&amp;gt;&lt;/i&gt;&lt;br&gt;&lt;b&gt;Repository&amp;lt;T&amp;gt;&lt;/b&gt;&lt;/p&gt;&lt;hr size=&quot;1&quot;&gt;&lt;p style=&quot;margin: 0px 0px 0px 4px; line-height: 140%;&quot;&gt;&lt;span style=&quot;font-family: Verdana; background-color: initial;&quot;&gt;&lt;br&gt;&lt;/span&gt;&lt;/p&gt;&lt;p style=&quot;margin: 0px 0px 0px 4px; line-height: 140%;&quot;&gt;&lt;span style=&quot;font-family: Verdana; background-color: initial;&quot;&gt;+ getById(id: Int): T&lt;/span&gt;&lt;br&gt;&lt;span style=&quot;font-family: Verdana; background-color: initial;&quot;&gt;+ getAll(): List&amp;lt;T&amp;gt;&lt;/span&gt;&lt;br&gt;&lt;span style=&quot;font-family: Verdana; background-color: initial;&quot;&gt;+ &lt;/span&gt;&lt;span style=&quot;background-color: initial;&quot;&gt;&lt;font face=&quot;Verdana&quot;&gt;create&lt;/font&gt;&lt;/span&gt;&lt;span style=&quot;font-family: Verdana; background-color: initial;&quot;&gt;(entity: T): Int&lt;/span&gt;&lt;br&gt;&lt;span style=&quot;font-family: Verdana; background-color: initial;&quot;&gt;+ update(entity: T): void&lt;/span&gt;&lt;br&gt;&lt;span style=&quot;font-family: Verdana; background-color: initial;&quot;&gt;+ delete(id: Int): void&lt;/span&gt;&lt;br&gt;&lt;/p&gt;&lt;p style=&quot;margin:0px;margin-left:4px;&quot;&gt;&lt;br&gt;&lt;/p&gt;" style="verticalAlign=top;align=left;overflow=fill;fontSize=12;fontFamily=Helvetica;html=1;whiteSpace=wrap;rounded=0;shadow=1;glass=0;movable=1;resizable=1;rotatable=1;deletable=1;editable=1;locked=0;connectable=1;" parent="1" vertex="1">
          <mxGeometry x="264" y="305" width="220" height="180" as="geometry" />
        </mxCell>
        <mxCell id="JdswID3IMP4crT_ataHJ-4" value="&lt;p style=&quot;margin: 4px 0px 0px;&quot;&gt;&lt;b&gt;ProjectService&lt;/b&gt;&lt;/p&gt;&lt;p style=&quot;margin:0px;margin-left:4px;&quot;&gt;&lt;br&gt;&lt;/p&gt;" style="verticalAlign=top;align=center;overflow=fill;fontSize=12;fontFamily=Helvetica;html=1;whiteSpace=wrap;gradientColor=none;fillColor=default;" parent="1" vertex="1">
          <mxGeometry x="908" y="273" width="120" height="20" as="geometry" />
        </mxCell>
        <mxCell id="JdswID3IMP4crT_ataHJ-5" value="&lt;p style=&quot;margin:0px;margin-top:4px;text-align:center;&quot;&gt;&lt;b&gt;TaskService&lt;/b&gt;&lt;/p&gt;&lt;p style=&quot;margin:0px;margin-left:4px;&quot;&gt;&lt;br&gt;&lt;/p&gt;" style="verticalAlign=top;align=left;overflow=fill;fontSize=12;fontFamily=Helvetica;html=1;whiteSpace=wrap;" parent="1" vertex="1">
          <mxGeometry x="908" y="495" width="120" height="20" as="geometry" />
        </mxCell>
        <mxCell id="JdswID3IMP4crT_ataHJ-17" style="edgeStyle=orthogonalEdgeStyle;rounded=0;orthogonalLoop=1;jettySize=auto;html=1;" parent="1" source="JdswID3IMP4crT_ataHJ-12" target="JdswID3IMP4crT_ataHJ-2" edge="1">
          <mxGeometry relative="1" as="geometry" />
        </mxCell>
        <mxCell id="JdswID3IMP4crT_ataHJ-18" value="implements" style="edgeLabel;html=1;align=center;verticalAlign=middle;resizable=0;points=[];spacingTop=0;spacingLeft=0;labelBorderColor=none;labelBackgroundColor=default;fontSize=12;" parent="JdswID3IMP4crT_ataHJ-17" vertex="1" connectable="0">
          <mxGeometry relative="1" as="geometry">
            <mxPoint x="43" as="offset" />
          </mxGeometry>
        </mxCell>
        <mxCell id="JdswID3IMP4crT_ataHJ-12" value="&lt;p style=&quot;margin:0px;margin-top:4px;text-align:center;&quot;&gt;&lt;b&gt;ProjectRepository&lt;/b&gt;&lt;/p&gt;&lt;hr style=&quot;border-color: var(--border-color);&quot; size=&quot;1&quot;&gt;&lt;p style=&quot;border-color: var(--border-color); margin: 0px 0px 0px 4px; line-height: 16.8px;&quot;&gt;&lt;font face=&quot;Verdana&quot;&gt;+ getById(id: Int): Project&lt;br style=&quot;border-color: var(--border-color);&quot;&gt;&lt;span style=&quot;border-color: var(--border-color); background-color: initial;&quot;&gt;+ getAll(): List&amp;lt;Project&amp;gt;&lt;/span&gt;&lt;br style=&quot;border-color: var(--border-color);&quot;&gt;&lt;span style=&quot;border-color: var(--border-color); background-color: initial;&quot;&gt;+&amp;nbsp;&lt;/span&gt;&lt;span style=&quot;border-color: var(--border-color); background-color: initial;&quot;&gt;&lt;font style=&quot;border-color: var(--border-color);&quot;&gt;create&lt;/font&gt;&lt;/span&gt;&lt;span style=&quot;border-color: var(--border-color); background-color: initial;&quot;&gt;(entity: Project): Int&lt;/span&gt;&lt;br style=&quot;border-color: var(--border-color);&quot;&gt;&lt;span style=&quot;border-color: var(--border-color); background-color: initial;&quot;&gt;+ update(entity: Task): void&lt;/span&gt;&lt;br style=&quot;border-color: var(--border-color);&quot;&gt;&lt;span style=&quot;border-color: var(--border-color); background-color: initial;&quot;&gt;+ delete(id: Int): void&lt;/span&gt;&lt;/font&gt;&lt;/p&gt;" style="verticalAlign=top;align=left;overflow=fill;fontSize=12;fontFamily=Helvetica;html=1;whiteSpace=wrap;" parent="1" vertex="1">
          <mxGeometry x="560" y="120" width="236" height="136" as="geometry" />
        </mxCell>
        <mxCell id="JdswID3IMP4crT_ataHJ-19" style="edgeStyle=orthogonalEdgeStyle;rounded=0;orthogonalLoop=1;jettySize=auto;html=1;entryX=0.5;entryY=1;entryDx=0;entryDy=0;exitX=0;exitY=0.5;exitDx=0;exitDy=0;" parent="1" source="JdswID3IMP4crT_ataHJ-21" target="JdswID3IMP4crT_ataHJ-2" edge="1">
          <mxGeometry relative="1" as="geometry">
            <mxPoint x="588" y="549.04" as="sourcePoint" />
          </mxGeometry>
        </mxCell>
        <mxCell id="JdswID3IMP4crT_ataHJ-20" value="implements" style="edgeLabel;html=1;align=center;verticalAlign=middle;resizable=0;points=[];fontSize=12;" parent="JdswID3IMP4crT_ataHJ-19" vertex="1" connectable="0">
          <mxGeometry relative="1" as="geometry">
            <mxPoint x="31" as="offset" />
          </mxGeometry>
        </mxCell>
        <mxCell id="JdswID3IMP4crT_ataHJ-21" value="&lt;p style=&quot;margin:0px;margin-top:4px;text-align:center;&quot;&gt;&lt;b&gt;TaskRepository&lt;/b&gt;&lt;/p&gt;&lt;hr style=&quot;border-color: var(--border-color);&quot; size=&quot;1&quot;&gt;&lt;p style=&quot;border-color: var(--border-color); margin: 0px 0px 0px 4px; line-height: 16.8px;&quot;&gt;&lt;font face=&quot;Verdana&quot;&gt;+ getById(id: Int): Task&lt;br style=&quot;border-color: var(--border-color);&quot;&gt;&lt;span style=&quot;border-color: var(--border-color); background-color: initial;&quot;&gt;+ getAll(): List&amp;lt;Task&amp;gt;&lt;/span&gt;&lt;br style=&quot;border-color: var(--border-color);&quot;&gt;&lt;span style=&quot;border-color: var(--border-color); background-color: initial;&quot;&gt;+&amp;nbsp;&lt;/span&gt;&lt;span style=&quot;border-color: var(--border-color); background-color: initial;&quot;&gt;&lt;font style=&quot;border-color: var(--border-color);&quot;&gt;create&lt;/font&gt;&lt;/span&gt;&lt;span style=&quot;border-color: var(--border-color); background-color: initial;&quot;&gt;(entity: Task): Int&lt;/span&gt;&lt;br style=&quot;border-color: var(--border-color);&quot;&gt;&lt;span style=&quot;border-color: var(--border-color); background-color: initial;&quot;&gt;+ update(entity: Task): void&lt;/span&gt;&lt;br style=&quot;border-color: var(--border-color);&quot;&gt;&lt;span style=&quot;border-color: var(--border-color); background-color: initial;&quot;&gt;+ delete(id: Int): void&lt;/span&gt;&lt;/font&gt;&lt;/p&gt;" style="verticalAlign=top;align=left;overflow=fill;fontSize=12;fontFamily=Helvetica;html=1;whiteSpace=wrap;" parent="1" vertex="1">
          <mxGeometry x="560" y="510" width="236" height="136" as="geometry" />
        </mxCell>
        <mxCell id="JdswID3IMP4crT_ataHJ-25" value="&lt;font style=&quot;font-size: 12px;&quot;&gt;Uses&lt;/font&gt;" style="endArrow=open;endSize=12;dashed=1;html=1;rounded=0;exitX=-0.012;exitY=0.639;exitDx=0;exitDy=0;exitPerimeter=0;entryX=1.007;entryY=0.428;entryDx=0;entryDy=0;entryPerimeter=0;" parent="1" source="JdswID3IMP4crT_ataHJ-5" target="JdswID3IMP4crT_ataHJ-21" edge="1">
          <mxGeometry width="160" relative="1" as="geometry">
            <mxPoint x="900" y="524" as="sourcePoint" />
            <mxPoint x="1060" y="524" as="targetPoint" />
          </mxGeometry>
        </mxCell>
        <mxCell id="JdswID3IMP4crT_ataHJ-26" value="&lt;font style=&quot;font-size: 12px;&quot;&gt;Uses&lt;/font&gt;" style="endArrow=open;endSize=12;dashed=1;html=1;rounded=0;exitX=0;exitY=0.5;exitDx=0;exitDy=0;entryX=1;entryY=0.5;entryDx=0;entryDy=0;" parent="1" source="JdswID3IMP4crT_ataHJ-4" target="JdswID3IMP4crT_ataHJ-12" edge="1">
          <mxGeometry width="160" relative="1" as="geometry">
            <mxPoint x="928" y="96" as="sourcePoint" />
            <mxPoint x="788" y="196" as="targetPoint" />
          </mxGeometry>
        </mxCell>
        <mxCell id="JdswID3IMP4crT_ataHJ-27" value="Data Access Layer" style="shape=umlFrame;whiteSpace=wrap;html=1;pointerEvents=0;width=128;height=28;" parent="1" vertex="1">
          <mxGeometry x="224" y="64" width="612" height="640" as="geometry" />
        </mxCell>
        <mxCell id="fqEYGrUtgxdC4zuboHPw-2" value="" style="image;sketch=0;aspect=fixed;html=1;points=[];align=center;fontSize=12;image=img/lib/mscae/Azure_Database_for_PostgreSQL_servers.svg;" parent="1" vertex="1">
          <mxGeometry x="72" y="328" width="72.96" height="96" as="geometry" />
        </mxCell>
        <mxCell id="fqEYGrUtgxdC4zuboHPw-4" style="edgeStyle=orthogonalEdgeStyle;rounded=0;orthogonalLoop=1;jettySize=auto;html=1;entryX=0.987;entryY=0.583;entryDx=0;entryDy=0;entryPerimeter=0;" parent="1" source="JdswID3IMP4crT_ataHJ-27" target="fqEYGrUtgxdC4zuboHPw-2" edge="1">
          <mxGeometry relative="1" as="geometry" />
        </mxCell>
        <mxCell id="fqEYGrUtgxdC4zuboHPw-5" value="Client Layer" style="shape=umlFrame;whiteSpace=wrap;html=1;pointerEvents=0;width=128;height=28;" parent="1" vertex="1">
          <mxGeometry x="1116" y="64" width="576" height="640" as="geometry" />
        </mxCell>
        <mxCell id="fqEYGrUtgxdC4zuboHPw-21" style="edgeStyle=orthogonalEdgeStyle;rounded=0;orthogonalLoop=1;jettySize=auto;html=1;exitX=0;exitY=0.5;exitDx=0;exitDy=0;exitPerimeter=0;entryX=0.5;entryY=0;entryDx=0;entryDy=0;" parent="1" source="fqEYGrUtgxdC4zuboHPw-7" target="fqEYGrUtgxdC4zuboHPw-16" edge="1">
          <mxGeometry relative="1" as="geometry" />
        </mxCell>
        <mxCell id="p42r0xCF6LnlFqDTC93m-3" style="edgeStyle=orthogonalEdgeStyle;rounded=0;orthogonalLoop=1;jettySize=auto;html=1;entryX=0.5;entryY=0;entryDx=0;entryDy=0;" edge="1" parent="1" source="fqEYGrUtgxdC4zuboHPw-7" target="p42r0xCF6LnlFqDTC93m-2">
          <mxGeometry relative="1" as="geometry" />
        </mxCell>
        <mxCell id="fqEYGrUtgxdC4zuboHPw-7" value="" style="sketch=0;aspect=fixed;pointerEvents=1;shadow=0;dashed=0;html=1;strokeColor=none;labelPosition=center;verticalLabelPosition=bottom;verticalAlign=top;align=center;fillColor=#00188D;shape=mxgraph.mscae.enterprise.application" parent="1" vertex="1">
          <mxGeometry x="1361.18" y="168" width="80" height="54.4" as="geometry" />
        </mxCell>
        <mxCell id="fqEYGrUtgxdC4zuboHPw-16" value="&lt;font style=&quot;font-size: 15px;&quot;&gt;/projects&lt;/font&gt;" style="shape=ext;double=1;rounded=1;whiteSpace=wrap;html=1;" parent="1" vertex="1">
          <mxGeometry x="1156" y="268.4" width="120" height="48" as="geometry" />
        </mxCell>
        <mxCell id="p42r0xCF6LnlFqDTC93m-1" value="" style="edgeStyle=orthogonalEdgeStyle;rounded=0;orthogonalLoop=1;jettySize=auto;html=1;" edge="1" parent="1" source="fqEYGrUtgxdC4zuboHPw-7" target="fqEYGrUtgxdC4zuboHPw-17">
          <mxGeometry relative="1" as="geometry" />
        </mxCell>
        <mxCell id="fqEYGrUtgxdC4zuboHPw-17" value="&lt;font style=&quot;font-size: 15px;&quot;&gt;/tasks/:projectId&lt;/font&gt;" style="shape=ext;double=1;rounded=1;whiteSpace=wrap;html=1;" parent="1" vertex="1">
          <mxGeometry x="1325.18" y="268.4" width="152" height="48" as="geometry" />
        </mxCell>
        <mxCell id="fqEYGrUtgxdC4zuboHPw-23" value="&lt;b&gt;&lt;font style=&quot;font-size: 13px;&quot;&gt;Views&lt;/font&gt;&lt;/b&gt;" style="text;html=1;align=center;verticalAlign=middle;resizable=0;points=[];autosize=1;strokeColor=none;fillColor=default;fillStyle=auto;" parent="1" vertex="1">
          <mxGeometry x="1126" y="108" width="60" height="32" as="geometry" />
        </mxCell>
        <mxCell id="p42r0xCF6LnlFqDTC93m-2" value="&lt;font style=&quot;font-size: 15px;&quot;&gt;/graph/:projectId&lt;/font&gt;" style="shape=ext;double=1;rounded=1;whiteSpace=wrap;html=1;" vertex="1" parent="1">
          <mxGeometry x="1516" y="268.4" width="152" height="48" as="geometry" />
        </mxCell>
        <mxCell id="p42r0xCF6LnlFqDTC93m-4" value="&lt;font style=&quot;font-size: 12px;&quot;&gt;Uses&lt;/font&gt;" style="endArrow=open;endSize=12;dashed=1;html=1;rounded=0;entryX=1;entryY=0.25;entryDx=0;entryDy=0;" edge="1" parent="1" source="fqEYGrUtgxdC4zuboHPw-5" target="JdswID3IMP4crT_ataHJ-4">
          <mxGeometry width="160" relative="1" as="geometry">
            <mxPoint x="1172" y="375" as="sourcePoint" />
            <mxPoint x="1037" y="283" as="targetPoint" />
          </mxGeometry>
        </mxCell>
        <mxCell id="p42r0xCF6LnlFqDTC93m-5" value="&lt;font style=&quot;font-size: 12px;&quot;&gt;Uses&lt;/font&gt;" style="endArrow=open;endSize=12;dashed=1;html=1;rounded=0;entryX=1;entryY=0.5;entryDx=0;entryDy=0;exitX=-0.007;exitY=0.61;exitDx=0;exitDy=0;exitPerimeter=0;" edge="1" parent="1" source="fqEYGrUtgxdC4zuboHPw-5" target="JdswID3IMP4crT_ataHJ-5">
          <mxGeometry width="160" relative="1" as="geometry">
            <mxPoint x="1119" y="445" as="sourcePoint" />
            <mxPoint x="1047" y="424" as="targetPoint" />
          </mxGeometry>
        </mxCell>
      </root>
    </mxGraphModel>
  </diagram>
</mxfile>
